<svg width="24" height="24" viewBox="0 0 24 24" fill="none" xmlns="http://www.w3.org/2000/svg">
<rect width="24" height="24" rx="12" fill="#0A66C2"/>
<path d="M11.6833 19C10.4648 19 9.38 18.8345 8.4289 18.5036C7.47781 18.1765 6.67377 17.6953 6.01678 17.0601C5.3598 16.4287 4.85942 15.6565 4.51565 14.7436C4.17188 13.8307 4 12.7923 4 11.6284C4 10.4797 4.17188 9.43743 4.51565 8.50171C4.86324 7.56599 5.36935 6.76341 6.03397 6.09395C6.69859 5.42069 7.51027 4.90339 8.46901 4.54203C9.43157 4.18068 10.5278 4 11.7577 4C12.896 4 13.912 4.16546 14.8058 4.49639C15.7035 4.82731 16.4636 5.29897 17.0862 5.91137C17.7126 6.51997 18.1882 7.24458 18.5128 8.0852C18.8413 8.92202 19.0036 9.84823 18.9998 10.8638C19.0036 11.5637 18.9425 12.2065 18.8165 12.7923C18.6904 13.3781 18.4918 13.8897 18.2206 14.3271C17.9532 14.7607 17.6018 15.105 17.1664 15.3598C16.7309 15.6109 16.2038 15.7535 15.585 15.7878C15.142 15.822 14.7829 15.7897 14.5079 15.6908C14.2329 15.5919 14.0228 15.4454 13.8777 15.2514C13.7363 15.0536 13.6447 14.8235 13.6026 14.5611H13.5339C13.4422 14.7893 13.2627 14.9966 12.9953 15.183C12.7279 15.3655 12.4014 15.5082 12.0156 15.6109C11.6336 15.7098 11.2268 15.7459 10.7952 15.7193C10.3445 15.6927 9.91666 15.5881 9.51178 15.4055C9.11071 15.2229 8.75358 14.9585 8.44036 14.6124C8.13097 14.2663 7.88651 13.8383 7.70699 13.3286C7.53128 12.8189 7.44152 12.2294 7.4377 11.5599C7.44152 10.8981 7.5351 10.3218 7.71845 9.83111C7.90561 9.34043 8.15198 8.92773 8.45755 8.593C8.76694 8.25827 9.11071 7.99582 9.48886 7.80563C9.86701 7.61544 10.2471 7.49372 10.629 7.44047C11.0607 7.37581 11.4694 7.37581 11.8551 7.44047C12.2409 7.50514 12.5656 7.60974 12.8292 7.75428C13.0965 7.89882 13.2627 8.05477 13.3276 8.22214H13.4078V7.58311H15.2012V13.1518C15.205 13.4142 15.2642 13.6177 15.3788 13.7623C15.4934 13.9068 15.6481 13.9791 15.8429 13.9791C16.1064 13.9791 16.3261 13.8631 16.5018 13.631C16.6813 13.399 16.815 13.0434 16.9028 12.5641C16.9945 12.0848 17.0403 11.4743 17.0403 10.7326C17.0403 10.0175 16.9448 9.38988 16.7539 8.84975C16.5667 8.30582 16.3031 7.84367 15.9632 7.46329C15.6271 7.07912 15.2355 6.76721 14.7886 6.52758C14.3417 6.28794 13.8566 6.11297 13.3334 6.00266C12.8139 5.89235 12.2791 5.8372 11.7291 5.8372C10.778 5.8372 9.94722 5.98174 9.23676 6.27083C8.5263 6.5561 7.93426 6.9574 7.46062 7.47471C6.98698 7.99201 6.63175 8.59871 6.39493 9.29479C6.16193 9.98707 6.04352 10.7421 6.0397 11.5599C6.04352 12.4614 6.16957 13.2602 6.41785 13.9563C6.66995 14.6485 7.04045 15.2305 7.52937 15.7022C8.01829 16.1738 8.6218 16.5314 9.33989 16.7748C10.058 17.0183 10.883 17.14 11.815 17.14C12.2543 17.14 12.684 17.1076 13.1042 17.043C13.5243 16.9821 13.9044 16.906 14.2443 16.8148C14.5843 16.7273 14.8574 16.6417 15.0637 16.558L15.6309 18.2126C15.3902 18.3496 15.0637 18.477 14.6511 18.5949C14.2424 18.7166 13.7803 18.8136 13.2646 18.8859C12.7528 18.962 12.2257 19 11.6833 19ZM11.4197 13.8421C11.8857 13.8421 12.2562 13.7528 12.5312 13.574C12.8101 13.3952 13.0087 13.1308 13.1271 12.7809C13.2493 12.4272 13.3066 11.9916 13.299 11.4743C13.2952 11.0179 13.236 10.6318 13.1214 10.3161C13.0106 9.99658 12.8177 9.75504 12.5427 9.59148C12.2715 9.42412 11.8933 9.34043 11.4082 9.34043C10.9843 9.34043 10.6233 9.42982 10.3254 9.6086C10.0313 9.78737 9.80589 10.0384 9.64929 10.3617C9.4965 10.6812 9.4182 11.0578 9.41438 11.4914C9.4182 11.8946 9.48313 12.2769 9.60918 12.6383C9.73523 12.9958 9.9434 13.2868 10.2337 13.5112C10.524 13.7318 10.9193 13.8421 11.4197 13.8421Z" fill="white"/>
</svg>
